HIERARCHY
ROOT Hips
{
	OFFSET -0.001795 -0.223333 0.028219
	CHANNELS 6 Xposition Yposition Zposition Zrotation Yrotation Xrotation 
	JOINT LeftUpLeg
	{
		OFFSET 0.069520 -0.091406 -0.006815
		CHANNELS 3 Zrotation Yrotation Xrotation
		JOINT LeftLeg
		{
			OFFSET 0.034277 -0.375199 -0.004496
			CHANNELS 3 Zrotation Yrotation Xrotation
			JOINT LeftFoot
			{
				OFFSET -0.013596 -0.397961 -0.043693
				CHANNELS 3 Zrotation Yrotation Xrotation
				JOINT LeftToe
				{
					OFFSET 0.026358 -0.055791 0.119288
					CHANNELS 3 Zrotation Yrotation Xrotation
					End Site
					{
						OFFSET 0.000000 0.000000 0.000000
					}
				}
			}
		}
	}
	JOINT RightUpLeg
	{
		OFFSET -0.067670 -0.090522 -0.004320
		CHANNELS 3 Zrotation Yrotation Xrotation
		JOINT RightLeg
		{
			OFFSET -0.038290 -0.382569 -0.008850
			CHANNELS 3 Zrotation Yrotation Xrotation
			JOINT RightFoot
			{
				OFFSET 0.015774 -0.398415 -0.042312
				CHANNELS 3 Zrotation Yrotation Xrotation
				JOINT RightToe
				{
					OFFSET -0.025372 -0.048144 0.123348
					CHANNELS 3 Zrotation Yrotation Xrotation
					End Site
					{
						OFFSET 0.000000 0.000000 0.000000
					}
				}
			}
		}
	}
	JOINT Spine
	{
		OFFSET -0.002533 0.108963 -0.026696
		CHANNELS 3 Zrotation Yrotation Xrotation
		JOINT Spine1
		{
			OFFSET 0.005487 0.135180 0.001092
			CHANNELS 3 Zrotation Yrotation Xrotation
			JOINT Spine2
			{
				OFFSET 0.001457 0.052922 0.025425
				CHANNELS 3 Zrotation Yrotation Xrotation
				JOINT Neck
				{
					OFFSET -0.002778 0.213870 -0.042857
					CHANNELS 3 Zrotation Yrotation Xrotation
					JOINT Head
					{
						OFFSET 0.005152 0.064970 0.051349
						CHANNELS 3 Zrotation Yrotation Xrotation
						End Site
						{
							OFFSET 0.000000 0.000000 0.000000
						}
					}
				}
				JOINT LeftShoulder
				{
					OFFSET 0.078845 0.121749 -0.034090
					CHANNELS 3 Zrotation Yrotation Xrotation
					JOINT LeftArm
					{
						OFFSET 0.090977 0.030469 -0.008868
						CHANNELS 3 Zrotation Yrotation Xrotation
						JOINT LeftForeArm
						{
							OFFSET 0.259612 -0.012772 -0.027456
							CHANNELS 3 Zrotation Yrotation Xrotation
							JOINT LeftHand
							{
								OFFSET 0.249234 0.008986 -0.001171
								CHANNELS 3 Zrotation Yrotation Xrotation
								End Site
								{
									OFFSET 0.000000 0.000000 0.000000
								}
							}
						}
					}
				}
				JOINT RightShoulder
				{
					OFFSET -0.081759 0.118833 -0.038615
					CHANNELS 3 Zrotation Yrotation Xrotation
					JOINT RightArm
					{
						OFFSET -0.096012 0.032551 -0.009143
						CHANNELS 3 Zrotation Yrotation Xrotation
						JOINT RightForeArm
						{
							OFFSET -0.253742 -0.013329 -0.021401
							CHANNELS 3 Zrotation Yrotation Xrotation
							JOINT RightHand
							{
								OFFSET -0.255298 0.007772 -0.005559
								CHANNELS 3 Zrotation Yrotation Xrotation
								End Site
								{
									OFFSET 0.000000 0.000000 0.000000
								}
							}
						}
					}
				}
			}
		}
	}
}
MOTION
Frames: 11
Frame Time: 0.050000
-0.953116 0.926253 0.985875 -10.069093 -44.961382 3.848590 11.998716 2.016666 -5.868516 0.946399 6.909839 38.196007 2.202225 5.545287 -5.750338 0.000000 0.000000 0.000000 -12.745597 5.085907 -33.626676 8.300248 3.252537 33.012355 8.906298 -1.589226 24.202161 0.000000 0.000000 0.000000 0.140569 1.912226 26.664153 5.719147 0.166678 -31.577357 -11.257838 -4.079785 33.415150 2.816701 -4.836963 -35.869774 0.000000 0.000000 0.000000 -10.274042 -13.614530 10.292474 -33.939975 -33.527883 3.078293 18.718261 -48.653219 -3.022086 0.000000 0.000000 0.000000 27.180348 -0.704822 -14.911584 24.010739 -9.525860 -2.891704 -13.262959 31.430531 -4.324742 0.000000 0.000000 0.000000 
-0.935020 0.923175 0.993562 -9.480446 -41.649354 2.817705 10.919901 1.550461 -4.980458 1.534310 5.529459 37.124805 2.303170 5.923241 -8.057426 0.000000 0.000000 0.000000 -13.034137 5.241442 -35.932843 15.797381 1.938918 42.246232 2.230185 -8.407533 19.383882 0.000000 0.000000 0.000000 1.713534 1.533120 28.350246 2.457777 0.321965 -31.059443 -10.983082 -6.502537 33.523334 2.359868 -4.870060 -33.732185 0.000000 0.000000 0.000000 -13.190316 -13.964657 11.776974 -32.476104 -30.534397 1.358618 16.756510 -48.501800 -2.610474 0.000000 0.000000 0.000000 26.984994 -0.837138 -14.686116 24.452787 -14.057197 -3.884259 -7.144243 29.374939 -2.262662 0.000000 0.000000 0.000000 
-0.927552 0.920127 1.003919 -9.176975 -37.147300 2.454126 10.187639 1.197077 -5.724595 1.882951 4.097927 36.014670 2.555675 6.197504 -8.384626 0.000000 0.000000 0.000000 -11.473229 4.867731 -35.413613 19.234293 0.189041 45.398453 -1.277219 -11.428926 14.138793 0.000000 0.000000 0.000000 2.374174 1.015067 28.466713 0.997324 0.414083 -30.295375 -11.513703 -6.004567 33.581485 5.143689 -5.338028 -35.765445 0.000000 0.000000 0.000000 -17.726677 -14.975850 13.806163 -27.828001 -27.289415 -0.798417 21.868197 -48.686265 -5.468105 0.000000 0.000000 0.000000 27.205316 -1.881456 -13.975938 26.987323 -18.140744 -5.573956 -1.297773 25.985180 -0.448593 0.000000 0.000000 0.000000 
-0.928762 0.922214 1.017034 -8.116157 -33.663431 1.733447 10.312092 1.068219 -5.957224 1.323457 3.549983 35.302098 2.809188 6.412065 -6.928415 0.000000 0.000000 0.000000 -6.501849 4.998111 -33.571201 16.338566 1.023078 47.035704 -2.820646 -12.165796 8.961840 0.000000 0.000000 0.000000 2.230405 0.725870 28.091925 0.360165 0.488363 -30.268752 -12.346786 -4.758877 34.033537 7.590011 -6.267171 -34.010306 0.000000 0.000000 0.000000 -19.000959 -13.837985 13.013294 -28.154178 -24.297414 -1.625179 22.571510 -50.129523 -6.031085 0.000000 0.000000 0.000000 27.123296 -1.767613 -12.447084 28.577291 -20.616950 -6.882028 3.628564 23.648985 0.718749 0.000000 0.000000 0.000000 
-0.936599 0.930234 1.032622 -7.285383 -28.712564 2.444817 9.657860 0.710951 -5.288471 1.792114 1.900444 31.896323 2.601576 5.621979 -6.253366 0.000000 0.000000 0.000000 -2.475147 3.974942 -27.558983 10.716180 1.774432 40.132480 -2.549511 -8.880060 3.584435 0.000000 0.000000 0.000000 2.805992 0.012507 25.667988 -2.387742 0.916960 -28.898531 -10.695721 -4.557726 32.491171 5.412510 -4.462366 -33.971355 0.000000 0.000000 0.000000 -19.317031 -12.340115 11.626501 -29.084145 -21.128112 -2.162484 18.009199 -52.701281 -4.143651 0.000000 0.000000 0.000000 26.327896 -3.262266 -11.907946 32.832967 -23.088914 -8.962396 7.336811 23.865344 1.465837 0.000000 0.000000 0.000000 
-0.948064 0.941848 1.049970 -5.668953 -24.672211 3.680792 9.064285 0.459262 -5.997058 0.827064 1.456750 29.240411 2.766405 5.879517 -3.403302 0.000000 0.000000 0.000000 0.061371 2.929840 -21.530310 3.235317 2.756218 31.365023 -1.217960 -4.661922 2.082036 0.000000 0.000000 0.000000 2.626772 -0.305171 23.453401 -4.313436 1.291946 -27.765734 -8.971953 -1.943807 29.991278 5.510599 -3.761862 -31.920611 0.000000 0.000000 0.000000 -21.025699 -12.445207 11.073022 -29.351890 -18.063897 -2.682809 11.474727 -51.777741 -1.380193 0.000000 0.000000 0.000000 26.510201 -3.380059 -10.232806 40.894286 -22.383612 -11.597911 6.635893 27.140420 1.690468 0.000000 0.000000 0.000000 
-0.958981 0.952787 1.066939 -4.558895 -20.033886 4.919410 8.698137 0.275154 -9.364200 1.675026 0.731605 31.167654 1.481483 3.536201 2.130249 0.000000 0.000000 0.000000 -0.204948 2.308747 -18.801897 0.712142 2.383829 26.170764 -1.004860 -5.670815 4.575798 0.000000 0.000000 0.000000 2.885975 -0.650088 21.271918 -5.554320 1.651874 -28.669726 -6.572245 3.072055 31.516024 3.746375 -1.523504 -33.136488 0.000000 0.000000 0.000000 -22.148766 -11.655077 8.954327 -31.781359 -17.219236 -2.751566 3.209626 -49.645654 2.101027 0.000000 0.000000 0.000000 27.580914 -4.387630 -8.367095 46.945817 -14.699647 -11.428486 6.776133 26.212019 2.105492 0.000000 0.000000 0.000000 
-0.966844 0.962330 1.084019 -3.962477 -13.045109 4.909352 9.501981 0.190063 -12.950562 1.065086 0.206253 34.365275 0.535075 1.714903 2.000689 0.000000 0.000000 0.000000 -1.754841 1.455000 -14.322875 2.639057 0.780264 20.493909 -2.925959 -10.344484 6.844456 0.000000 0.000000 0.000000 3.262219 -1.006302 19.787012 -6.543703 1.918421 -26.619449 -4.061937 6.119663 30.024115 4.069411 -0.437922 -32.564783 0.000000 0.000000 0.000000 -26.662571 -10.875821 6.430302 -31.787241 -14.130007 -2.754641 -2.089898 -46.942954 3.469785 0.000000 0.000000 0.000000 28.398664 -2.452322 -4.292272 50.038875 -4.552954 -8.857101 5.985979 25.583131 2.318371 0.000000 0.000000 0.000000 
-0.970668 0.968981 1.102994 -1.813918 -6.240651 4.979627 9.615085 -0.003998 -19.330002 -4.169138 1.557995 34.890765 2.159728 5.320017 2.626075 0.000000 0.000000 0.000000 -4.702744 0.833264 -9.914574 4.290382 -0.174440 15.468540 -3.431140 -11.416738 8.926810 0.000000 0.000000 0.000000 2.396196 -1.047644 18.976764 -6.987895 2.115751 -25.382805 -1.992919 10.238890 29.419055 3.909585 1.040040 -32.570866 0.000000 0.000000 0.000000 -27.564799 -9.807456 2.223144 -33.607556 -11.420766 -2.381066 -7.870951 -43.408325 4.655096 0.000000 0.000000 0.000000 28.684320 -2.365697 -0.978970 49.313842 6.939228 -5.119522 6.805307 24.692492 2.721567 0.000000 0.000000 0.000000 
-0.970859 0.971247 1.124561 -0.852285 -0.983394 4.599428 10.019286 -0.224394 -23.692950 -9.020371 2.630513 30.625887 4.513494 10.889321 6.504327 0.000000 0.000000 0.000000 -5.635282 0.484179 -5.479939 4.546068 -0.456671 11.096284 -5.297846 -14.900925 11.344426 0.000000 0.000000 0.000000 2.298325 -1.195427 19.002697 -6.979240 2.131971 -26.718694 -0.073654 16.027686 30.727662 5.712616 1.575246 -32.031624 0.000000 0.000000 0.000000 -27.963387 -10.855491 -1.108875 -33.703969 -8.011849 -2.087298 -12.575302 -39.023311 4.978242 0.000000 0.000000 0.000000 28.204342 -3.045516 2.022131 47.606918 17.979007 -1.845347 5.795688 25.918061 2.994854 0.000000 0.000000 0.000000 
-0.967021 0.970269 1.149522 -0.431558 2.585475 4.941594 9.745794 -0.576800 -26.188575 -10.018441 2.056484 20.470732 7.119491 16.267609 11.580689 0.000000 0.000000 0.000000 -6.446663 0.211922 -0.604769 5.233749 -0.639763 6.154489 -5.797705 -15.593077 12.624544 0.000000 0.000000 0.000000 2.541295 -1.245468 17.453848 -8.382956 2.473069 -26.271125 1.712653 20.712155 31.245431 7.635057 1.718963 -31.884922 0.000000 0.000000 0.000000 -25.381505 -10.125373 -3.941549 -37.074169 -5.091140 -2.470129 -14.311623 -34.258724 4.243205 0.000000 0.000000 0.000000 26.835096 -2.062140 4.934218 46.774178 26.170366 0.935571 2.534949 28.435430 2.810968 0.000000 0.000000 0.000000 
